<?xml version="1.0" standalone="no"?><!DOCTYPE svg PUBLIC "-//W3C//DTD SVG 1.1//EN" "http://www.w3.org/Graphics/SVG/1.1/DTD/svg11.dtd"><svg t="1521890259016" class="icon" style="" viewBox="0 0 1024 1024" version="1.1" xmlns="http://www.w3.org/2000/svg" p-id="7215" xmlns:xlink="http://www.w3.org/1999/xlink" width="200" height="200"><defs><style type="text/css">html, * { user-select: text !important; }
html, * {  }
</style></defs><path d="M459.352747 89.050453c-121.173333 26.965333-205.824 126.634667-215.722667 252.928-1.024 15.701333-3.413333 28.330667-5.12 28.330667-5.12 0-16.384 21.845333-16.384 31.744 0 5.12-2.389333 13.312-5.461333 17.749333-4.096 6.485333-5.12 14.336-4.096 33.109333l1.365333 24.917333-21.504 28.330667c-52.565333 68.949333-73.045333 142.336-57.344 203.776 7.168 26.96192 11.605333 31.402667 25.6 25.6 10.922667-4.437333 39.253333-33.792 45.397333-47.104 3.754667-8.192 9.216-10.24 9.216-3.413333 0 8.188587 20.821333 48.46592 36.181333 70.314667 8.533333 11.946667 15.018667 22.186667 14.336 22.528-0.341333 0.682667-7.168 4.440747-14.677333 8.192-27.989333 14.336-40.277333 35.157333-40.618667 70.656-0.341333 12.288 1.706667 20.135253 6.485333 26.96192 3.754667 5.464747 8.533333 12.629333 10.581333 16.042667 11.946667 20.48 33.792 30.72 79.530667 37.546667 34.133333 4.778667 57.685333 2.730667 124.928-10.581333 67.925333-13.312 96.252587-13.312 166.912 0.682667 100.007253 19.797333 160.768 13.308587 192.853333-20.48 23.893333-25.944747 31.061333-47.107413 22.86592-67.242667-2.730667-6.144-4.092587-12.291413-3.072-12.970667 0.68608-1.027413-1.020587-6.485333-3.754667-12.291413-6.485333-11.946667-22.86592-25.255253-40.618667-32.768l-12.288-5.12 18.09408-26.624c9.895253-14.680747 22.186667-37.546667 27.648-51.2l9.557333-24.576 12.629333 19.456c13.312 20.48 31.744 39.594667 41.639253 43.008 14.339413 5.12 26.28608-24.576 29.013333-70.997333 1.365333-24.576 0.344747-36.864-5.461333-59.733333-8.192-33.792-34.812587-88.746667-55.978667-117.077333-14.67392-19.456-15.015253-19.456-11.60192-37.546667 4.096-23.210667-1.36192-50.858667-14.677333-72.021333-8.192-12.629333-10.922667-22.186667-13.653333-45.738667-12.629333-111.274667-90.794667-204.8-199.68-239.616C560.725333 83.58912 494.168747 81.199787 459.352747 89.050453zM606.467413 211.930453c15.018667 9.898667 25.941333 33.450667 27.989333 59.050667 5.464747 79.189333-55.975253 116.394667-88.746667 53.589333-11.264-20.821333-10.922667-65.877333 0.344747-88.405333C559.018667 209.199787 585.987413 198.618453 606.467413 211.930453zM463.107413 215.343787c15.36 10.24 26.282667 33.450667 27.989333 60.757333 1.706667 30.72-3.413333 50.176-18.432 66.56-13.653333 15.36-27.648 19.456-43.349333 12.629333-24.576-10.581333-37.546667-35.498667-37.546667-73.728 0-28.672 8.192-50.176 24.234667-63.829333C427.267413 208.175787 450.47808 207.151787 463.107413 215.343787zM610.563413 380.207787c44.373333 11.264 92.842667 36.181333 92.842667 48.128 0 6.485333-30.040747 25.6-48.469333 30.72-10.922667 3.413333-10.584747 2.389333 3.413333-16.384 12.291413-16.384 7.171413-16.725333-13.653333-1.024-75.776 57.002667-167.253333 58.368-240.981333 3.072-10.24-7.509333-19.114667-12.970667-19.797333-11.946667-1.024 0.682667 1.706667 7.168 5.802667 13.994667 4.096 6.826667 6.485333 13.312 5.461333 14.336-2.389333 2.389333-30.72-9.898667-43.349333-19.114667-5.802667-4.096-10.24-10.24-10.24-13.994667 0-14.336 62.122667-42.325333 115.712-52.565333C494.168747 368.26112 573.016747 370.991787 610.563413 380.207787L610.563413 380.207787zM390.06208 499.674453c28.330667 9.898667 78.506667 17.408 114.346667 17.408 21.504 0 31.744 1.36192 31.744 4.096 0 5.12-67.242667 1.36192-104.448-5.802667-29.354667-5.461333-59.392-14.677333-64.170667-19.114667C362.072747 491.482453 369.240747 492.506453 390.06208 499.674453L390.06208 499.674453zM585.64608 517.082453c-5.461333 1.36192-18.773333 2.389333-29.013333 2.389333l-18.773333 0 20.48-2.389333c11.264-1.365333 24.234667-2.389333 29.013333-2.389333C594.858667 514.351787 594.520747 514.69312 585.64608 517.082453zM309.848747 567.599787c2.730667 1.706667 2.048 13.653333-2.730667 46.762667-8.192 54.954667-6.485333 76.117333 7.850667 92.16 12.970667 15.015253 35.498667 23.210667 63.829333 23.548587 47.104 0.682667 51.541333-5.461333 51.541333-71.68l0-43.34592 28.330667 3.068587c103.082667 10.922667 202.410667-9.895253 275.11808-58.368 10.24-6.826667 19.79392-10.922667 21.159253-9.557333 12.629333 12.62592 17.408 95.573333 8.192 132.437333-27.306667 105.468587-121.173333 179.882667-233.813333 185.002667-79.189333 3.754667-144.042667-20.48-197.973333-74.069333-40.96-40.96-64.512-89.429333-69.973333-145.411413-2.389333-26.279253 2.730667-70.652587 10.581333-89.42592l4.778667-11.267413 14.336 8.87808C299.267413 561.114453 307.459413 566.234453 309.848747 567.599787L309.848747 567.599787zM280.49408 795.610453c2.730667 3.072 10.24 9.216 16.725333 13.312 6.485333 4.437333 18.090667 13.653333 25.941333 20.821333 7.509333 7.509333 24.917333 22.186667 38.229333 33.109333 17.749333 14.336 24.576 22.186667 24.576 27.648 0 10.24-6.826667 12.291413-47.104 12.291413-56.32 0-99.669333-15.704747-110.592-39.59808-3.754667-7.850667-3.072-11.264 4.778667-25.6 8.192-15.701333 8.533333-16.72192 2.389333-18.428587-8.533333-2.730667-4.778667-9.216 10.581333-20.48C260.01408 789.12512 274.008747 787.759787 280.49408 795.610453L280.49408 795.610453zM774.403413 794.927787c19.11808 9.898667 26.624 25.944747 11.946667 25.944747-4.775253 0-4.775253 1.024 0.682667 6.826667 3.413333 3.754667 6.826667 13.994667 7.850667 23.210667 1.36192 15.36 0.682667 17.066667-10.922667 27.306667-19.114667 16.725333-44.373333 22.869333-93.525333 22.186667-31.399253 0-43.687253-1.365333-47.100587-5.12-7.171413-6.826667 1.020587-16.725333 25.255253-30.378667 30.375253-17.408 42.32192-26.624 46.424747-34.474667 2.048-4.096 8.533333-8.533333 14.332587-10.24 6.826667-1.706667 13.994667-7.509333 20.138667-16.384C760.067413 788.442453 761.432747 788.10112 774.403413 794.927787zM562.432 260.399787c-8.188587 8.874667-13.308587 24.917333-10.919253 34.133333 2.730667 11.264 9.212587 7.850667 13.653333-8.192 4.437333-16.725333 17.408-20.821333 20.48-6.826667l3.413333 17.749333c3.413333 15.36 10.24 7.168 10.24-12.288-0.341333-14.677333-1.706667-19.114667-8.192-24.234667C581.205333 252.54912 569.603413 252.54912 562.432 260.399787L562.432 260.399787zM446.040747 257.327787c-13.312 14.677333-12.288 43.008 2.048 53.248 10.581333 7.168 15.36 6.485333 24.917333-3.413333 6.485333-6.144 8.533333-11.946667 8.533333-23.893333C481.539413 257.66912 460.035413 241.967787 446.040747 257.327787L446.040747 257.327787zM469.592747 278.490453c0 9.557333-9.898667 12.970667-13.312 4.437333-2.389333-6.485333 3.754667-16.042667 9.557333-13.994667C467.88608 269.615787 469.592747 273.711787 469.592747 278.490453L469.592747 278.490453z" p-id="7216"></path></svg>